<mxfile host="app.diagrams.net" modified="2023-03-26T13:48:36.815Z" agent="Mozilla/5.0 (Windows NT 10.0; Win64; x64) AppleWebKit/537.36 (KHTML, like Gecko) Chrome/111.0.0.0 Safari/537.36" etag="z7uAYmCvXl_W9B7lKVtf" version="21.1.1" type="google">
  <diagram name="Страница 1" id="_wi6kcAj0TkNEahVVX_a">
    <mxGraphModel grid="1" page="1" gridSize="10" guides="1" tooltips="1" connect="1" arrows="1" fold="1" pageScale="1" pageWidth="827" pageHeight="1169" math="0" shadow="0">
      <root>
        <mxCell id="0" />
        <mxCell id="1" parent="0" />
        <mxCell id="hN9QtbvcZ00cpnKn3ag_-6" value="" style="edgeStyle=orthogonalEdgeStyle;rounded=0;orthogonalLoop=1;jettySize=auto;html=1;" edge="1" parent="1" source="hN9QtbvcZ00cpnKn3ag_-2" target="hN9QtbvcZ00cpnKn3ag_-5">
          <mxGeometry relative="1" as="geometry" />
        </mxCell>
        <mxCell id="hN9QtbvcZ00cpnKn3ag_-2" value="&lt;div style=&quot;text-align: start;&quot;&gt;&lt;span style=&quot;background-color: initial;&quot;&gt;string [] array1&lt;/span&gt;&lt;/div&gt;" style="shape=parallelogram;perimeter=parallelogramPerimeter;whiteSpace=wrap;html=1;fixedSize=1;" vertex="1" parent="1">
          <mxGeometry x="340" y="30" width="120" height="60" as="geometry" />
        </mxCell>
        <mxCell id="hN9QtbvcZ00cpnKn3ag_-9" value="yes" style="edgeStyle=orthogonalEdgeStyle;rounded=0;orthogonalLoop=1;jettySize=auto;html=1;" edge="1" parent="1" source="hN9QtbvcZ00cpnKn3ag_-3">
          <mxGeometry relative="1" as="geometry">
            <mxPoint x="500" y="240" as="targetPoint" />
          </mxGeometry>
        </mxCell>
        <mxCell id="hN9QtbvcZ00cpnKn3ag_-20" value="no" style="edgeStyle=orthogonalEdgeStyle;rounded=0;orthogonalLoop=1;jettySize=auto;html=1;" edge="1" parent="1" source="hN9QtbvcZ00cpnKn3ag_-3" target="hN9QtbvcZ00cpnKn3ag_-19">
          <mxGeometry relative="1" as="geometry" />
        </mxCell>
        <mxCell id="hN9QtbvcZ00cpnKn3ag_-3" value="i &amp;lt; array1.Length&lt;br&gt;" style="rhombus;whiteSpace=wrap;html=1;" vertex="1" parent="1">
          <mxGeometry x="340" y="200" width="120" height="80" as="geometry" />
        </mxCell>
        <mxCell id="hN9QtbvcZ00cpnKn3ag_-7" value="" style="edgeStyle=orthogonalEdgeStyle;rounded=0;orthogonalLoop=1;jettySize=auto;html=1;" edge="1" parent="1" source="hN9QtbvcZ00cpnKn3ag_-5" target="hN9QtbvcZ00cpnKn3ag_-3">
          <mxGeometry relative="1" as="geometry" />
        </mxCell>
        <mxCell id="hN9QtbvcZ00cpnKn3ag_-5" value="i = 0&lt;br&gt;count = 0" style="rounded=0;whiteSpace=wrap;html=1;" vertex="1" parent="1">
          <mxGeometry x="340" y="120" width="120" height="60" as="geometry" />
        </mxCell>
        <mxCell id="hN9QtbvcZ00cpnKn3ag_-14" value="yes" style="edgeStyle=orthogonalEdgeStyle;rounded=0;orthogonalLoop=1;jettySize=auto;html=1;" edge="1" parent="1" source="hN9QtbvcZ00cpnKn3ag_-10" target="hN9QtbvcZ00cpnKn3ag_-13">
          <mxGeometry relative="1" as="geometry" />
        </mxCell>
        <mxCell id="hN9QtbvcZ00cpnKn3ag_-22" value="no" style="edgeStyle=orthogonalEdgeStyle;rounded=0;orthogonalLoop=1;jettySize=auto;html=1;exitX=0.5;exitY=1;exitDx=0;exitDy=0;entryX=1;entryY=0.5;entryDx=0;entryDy=0;" edge="1" parent="1" source="hN9QtbvcZ00cpnKn3ag_-10" target="hN9QtbvcZ00cpnKn3ag_-21">
          <mxGeometry relative="1" as="geometry" />
        </mxCell>
        <mxCell id="hN9QtbvcZ00cpnKn3ag_-10" value="array1[i].Length &amp;lt;= 3" style="rhombus;whiteSpace=wrap;html=1;" vertex="1" parent="1">
          <mxGeometry x="500" y="200" width="140" height="80" as="geometry" />
        </mxCell>
        <mxCell id="hN9QtbvcZ00cpnKn3ag_-23" style="edgeStyle=orthogonalEdgeStyle;rounded=0;orthogonalLoop=1;jettySize=auto;html=1;" edge="1" parent="1" source="hN9QtbvcZ00cpnKn3ag_-13">
          <mxGeometry relative="1" as="geometry">
            <mxPoint x="570" y="340" as="targetPoint" />
            <Array as="points">
              <mxPoint x="740" y="340" />
            </Array>
          </mxGeometry>
        </mxCell>
        <mxCell id="hN9QtbvcZ00cpnKn3ag_-13" value="array2[count] =&amp;nbsp;&lt;br&gt;array1[i]&lt;br&gt;&lt;br&gt;count++" style="rounded=0;whiteSpace=wrap;html=1;" vertex="1" parent="1">
          <mxGeometry x="680" y="210" width="120" height="60" as="geometry" />
        </mxCell>
        <mxCell id="hN9QtbvcZ00cpnKn3ag_-19" value="print array2" style="shape=parallelogram;perimeter=parallelogramPerimeter;whiteSpace=wrap;html=1;fixedSize=1;" vertex="1" parent="1">
          <mxGeometry x="180" y="210" width="120" height="60" as="geometry" />
        </mxCell>
        <mxCell id="hN9QtbvcZ00cpnKn3ag_-24" style="edgeStyle=orthogonalEdgeStyle;rounded=0;orthogonalLoop=1;jettySize=auto;html=1;entryX=0.5;entryY=1;entryDx=0;entryDy=0;" edge="1" parent="1" source="hN9QtbvcZ00cpnKn3ag_-21" target="hN9QtbvcZ00cpnKn3ag_-3">
          <mxGeometry relative="1" as="geometry" />
        </mxCell>
        <mxCell id="hN9QtbvcZ00cpnKn3ag_-21" value="i++" style="rounded=0;whiteSpace=wrap;html=1;" vertex="1" parent="1">
          <mxGeometry x="355" y="320" width="90" height="40" as="geometry" />
        </mxCell>
      </root>
    </mxGraphModel>
  </diagram>
</mxfile>
